<svg version="1.1" id="Layer_1" xmlns="http://www.w3.org/2000/svg" xmlns:xlink="http://www.w3.org/1999/xlink" x="0px" y="0px"
	 width="100%" viewBox="0 0 300 300" xml:space="preserve">
<path fill="#5D95F3" opacity="1.000000" stroke="none" 
	d="M 301 179 C 301 180.3889 301 181.7778 300.6478 183.3903 C 298.155 183.6666 295.8828 184.2124 293.8978 183.6825 C 287.0651 181.8585 280.3225 179.6916 273.5664 177.5884 C 270.0599 176.4968 268.4102 177.94 266.5868 181.0419 C 260.8751 190.7582 255.2311 200.6126 248.4633 209.5857 C 239.3798 221.629 227.9089 229.7121 211.4386 227.1437 C 202.7602 225.7904 194.3679 224.3194 189.1589 217.9449 C 185.5248 219.6279 182.141 222.6465 178.994 222.4171 C 158.2898 220.908 145.8163 201.6234 152.3987 182.0146 C 161.6349 154.5 174.8329 128.7655 188.1405 103.0972 C 192.9999 93.7242 198.358 84.6099 203.5336 75.2964 C 195.1329 75.2964 187.1539 75.52 179.1967 75.2014 C 175.2597 75.0438 173.9418 76.6162 172.6388 80.1389 C 156.1655 124.6755 136.7429 167.8071 109.8147 207.1495 C 99.9294 221.5921 89.1828 235.4364 72.1603 242.4321 C 67.9755 244 61 244 59.7381 243.6747 C 32 236 4 212 2 198 C 1 190.6431 1 186.2862 1.2076 181.8503 C 2 178 4.5366 176.2785 6.7729 174.2928 C 8.0652 173.1452 10.7362 173.5503 12 174 C 12.919 174.9526 13.2733 176.6681 13.1273 178.3399 C 12.9463 180.4123 11.832 182.4968 12.018 184.4926 C 13.2919 198.1622 27.8803 207.989 41.4263 204.2592 C 42.5433 203.9288 43.3323 203.6012 44.4436 203.2326 C 45.5189 202.8176 46.272 202.4435 47.321 202.0575 C 48.0885 201.7222 48.56 201.3987 49.3617 201.0181 C 51.4991 199.7401 53.3065 198.5193 55.4248 197.2165 C 56.5044 196.4281 57.273 195.7217 58.3681 194.9296 C 65.7221 187.1377 73.4647 179.9611 79.6422 171.6248 C 97.5409 147.4716 110.3224 120.3854 122.8924 93.2327 C 124.5113 89.7358 125.9732 86.1661 127.8835 81.7646 C 125.0552 82.0758 123.4091 82.1024 121.8367 82.4564 C 114.5544 84.0961 107.3282 86.0034 100.0137 87.4768 C 92.1063 89.0696 84.2045 91.6361 75.8409 88.7288 C 75.1234 88.3003 74.576 88.1117 73.8567 87.6367 C 66.3361 81.3022 62.7714 73.4955 62.9071 63.5786 C 62.9314 61.4352 62.8827 59.7162 62.9007 57.5638 C 63 55 63 54 64 52 C 66 51 66.7778 51 68 52 C 70.0092 55.3901 73.1777 56.5114 76.5481 56.7594 C 82.549 57.2009 88.5872 57.5819 94.5939 57.4159 C 113.1067 56.9041 131.6076 55.9403 150.1215 55.4985 C 166.9985 55.0958 183.8873 55.2062 200.7694 54.979 C 219.1646 54.7314 231.7608 63.6126 240.4361 79.3237 C 243.555 84.9721 243.8307 89.7111 240.3185 95.4604 C 229.1415 113.757 218.3316 132.2828 207.6523 150.8765 C 201.3445 161.8589 195.5515 173.1369 189.527 184.2821 C 190.0943 184.6407 190.6615 184.9993 191.2288 185.358 C 192.2557 183.8951 193.2986 182.4431 194.3071 180.9676 C 206.1068 163.7049 217.2214 145.9196 229.8922 129.3223 C 242.073 113.3669 251.8455 113.085 267.3076 125.8269 C 268.9715 127.1981 270.4682 128.7799 271.9842 130.3213 C 279.3819 137.8424 281.4547 146.3689 277.1967 156.3124 C 275.1901 160.9982 273.689 165.9005 271.8428 171.027 C 275.3662 171.6274 278.6896 171.8792 281.8198 172.7928 C 288.2679 174.6747 294.6127 176.9101 301 179 M 201.9025 184.1455 C 201.9774 184.4403 201.9628 184.8609 202.1519 184.9956 C 202.3513 185.1376 202.7832 185.0956 203.0485 184.9821 C 211.1109 181.5325 219.1912 178.1218 227.1929 174.5358 C 228.3812 174.0032 229.7069 172.8006 230.0977 171.6197 C 233.2787 162.0067 236.383 152.3628 239.1921 142.6364 C 239.8483 140.3641 239.2891 137.7407 239.2891 135.2789 C 238.7348 135.0837 238.1806 134.8885 237.6263 134.6934 C 223.3659 149.171 212.7711 166.4034 201.9025 184.1455 M 213.5041 187.9206 C 207.5264 192.2455 201.0831 196.0702 195.7245 201.0598 C 191.7289 204.7805 192.2781 210.1369 195.3747 213.1086 C 197.9658 215.5953 202.1599 214.9603 206.3877 211.14 C 214.6055 203.7145 220.0177 194.3607 225.2585 183.3273 C 220.8777 185.0715 217.5552 186.3944 213.5041 187.9206 z"/>
</svg>